<?xml version="1.0" encoding="utf-8"?>
<!-- Generator: Adobe Illustrator 16.0.0, SVG Export Plug-In . SVG Version: 6.00 Build 0)  -->
<!DOCTYPE svg PUBLIC "-//W3C//DTD SVG 1.1//EN" "http://www.w3.org/Graphics/SVG/1.1/DTD/svg11.dtd">
<svg version="1.1" id="Capa_1" xmlns="http://www.w3.org/2000/svg" xmlns:xlink="http://www.w3.org/1999/xlink" x="0px" y="0px"
	 width="123px" height="51px" viewBox="0 0 123 51" enable-background="new 0 0 123 51" xml:space="preserve">
<g>
	<path fill="#FFFFFF" d="M3,36.816V18.131h2.417v18.685H3z"/>
	<path fill="#FFFFFF" d="M13.206,22.553v14.263h-2.417V18.131h1.88l11.816,14.553V18.158h2.417v18.658h-2.041L13.206,22.553z"/>
	<path fill="#FFFFFF" d="M46.023,20.237h-6.58v16.579h-2.417V20.237h-6.58v-2.105h15.577V20.237z"/>
	<path fill="#FFFFFF" d="M62.513,34.71v2.105H49.568V18.131h12.703v2.105H51.985v6.052h8.943v1.974h-8.943v6.447H62.513z"/>
	<path fill="#FFFFFF" d="M69.039,22.553v14.263h-2.417V18.131h1.88l11.816,14.553V18.158h2.417v18.658h-2.041L69.039,22.553z"/>
	<path fill="#FFFFFF" d="M99.307,22.053c-0.215-0.246-0.501-0.482-0.86-0.71c-0.358-0.228-0.761-0.435-1.208-0.619
		c-0.447-0.184-0.936-0.333-1.464-0.448c-0.528-0.114-1.079-0.17-1.651-0.17c-1.486,0-2.574,0.272-3.263,0.816
		c-0.689,0.543-1.034,1.289-1.034,2.237c0,0.509,0.098,0.93,0.295,1.263c0.197,0.333,0.506,0.618,0.926,0.855
		c0.421,0.237,0.944,0.443,1.571,0.618c0.626,0.176,1.37,0.36,2.229,0.553c0.984,0.21,1.875,0.451,2.672,0.724
		c0.796,0.272,1.477,0.609,2.041,1.013c0.564,0.404,0.994,0.895,1.289,1.474c0.295,0.579,0.443,1.29,0.443,2.132
		c0,0.895-0.179,1.671-0.538,2.329c-0.358,0.658-0.846,1.202-1.463,1.632c-0.618,0.43-1.347,0.746-2.189,0.947
		C96.262,36.899,95.35,37,94.365,37c-1.469,0-2.86-0.224-4.177-0.671c-1.316-0.447-2.511-1.101-3.585-1.96l1.155-2
		c0.286,0.298,0.658,0.596,1.114,0.895c0.457,0.298,0.976,0.566,1.558,0.803c0.581,0.237,1.208,0.43,1.879,0.579
		c0.672,0.149,1.374,0.223,2.108,0.223c1.36,0,2.417-0.236,3.169-0.71c0.752-0.474,1.128-1.184,1.128-2.132
		c0-0.526-0.121-0.969-0.362-1.329c-0.242-0.359-0.595-0.671-1.061-0.934c-0.465-0.263-1.043-0.495-1.732-0.698
		c-0.689-0.201-1.473-0.407-2.35-0.618c-0.967-0.228-1.817-0.474-2.551-0.737c-0.734-0.263-1.347-0.579-1.84-0.947
		s-0.864-0.816-1.114-1.342c-0.251-0.527-0.376-1.158-0.376-1.895c0-0.895,0.17-1.685,0.511-2.368
		c0.34-0.685,0.814-1.263,1.423-1.737c0.608-0.474,1.333-0.829,2.175-1.065C92.279,18.119,93.192,18,94.177,18
		c1.29,0,2.453,0.193,3.492,0.579c1.038,0.387,1.96,0.904,2.766,1.553L99.307,22.053z"/>
	<path fill="#FFFFFF" d="M113.003,36.947c-1.343,0-2.565-0.267-3.666-0.802s-2.045-1.246-2.833-2.132
		c-0.788-0.886-1.396-1.898-1.826-3.04c-0.43-1.14-0.645-2.307-0.645-3.5c0-1.246,0.228-2.439,0.685-3.58
		c0.457-1.14,1.088-2.149,1.894-3.026s1.759-1.575,2.86-2.092c1.101-0.517,2.296-0.776,3.585-0.776c1.343,0,2.56,0.276,3.652,0.829
		c1.092,0.553,2.032,1.277,2.82,2.171c0.787,0.895,1.396,1.908,1.826,3.04c0.43,1.131,0.645,2.285,0.645,3.46
		c0,1.246-0.229,2.439-0.685,3.579c-0.457,1.141-1.084,2.145-1.88,3.013c-0.797,0.868-1.745,1.562-2.847,2.079
		C115.487,36.688,114.292,36.947,113.003,36.947z M106.477,27.474c0,0.947,0.157,1.864,0.47,2.75s0.756,1.671,1.33,2.355
		c0.573,0.684,1.262,1.228,2.068,1.632c0.805,0.403,1.7,0.605,2.685,0.605c1.021,0,1.934-0.215,2.739-0.645
		c0.806-0.429,1.491-0.991,2.055-1.684c0.564-0.693,0.994-1.478,1.289-2.355c0.295-0.877,0.443-1.764,0.443-2.658
		c0-0.948-0.157-1.864-0.47-2.75s-0.761-1.667-1.343-2.343c-0.582-0.675-1.271-1.214-2.068-1.619
		c-0.797-0.403-1.678-0.605-2.646-0.605c-1.021,0-1.934,0.21-2.739,0.631c-0.806,0.421-1.491,0.974-2.055,1.658
		c-0.563,0.685-0.998,1.465-1.302,2.342C106.629,25.667,106.477,26.562,106.477,27.474z"/>
</g>
<g>
	<path fill="#FFFFFF" d="M41,50.903v-9.833h4.352c0.46,0,0.884,0.089,1.271,0.27c0.387,0.18,0.72,0.42,0.999,0.72
		c0.28,0.3,0.498,0.637,0.655,1.011c0.156,0.374,0.235,0.755,0.235,1.143c0,0.407-0.074,0.799-0.221,1.178
		c-0.147,0.378-0.355,0.715-0.625,1.011c-0.27,0.295-0.593,0.531-0.97,0.706s-0.796,0.263-1.257,0.263h-3.116v3.532H41z
		 M42.323,46.263h3.043c0.274,0,0.522-0.053,0.742-0.159c0.221-0.106,0.41-0.254,0.566-0.443c0.157-0.189,0.279-0.409,0.367-0.658
		c0.088-0.249,0.132-0.513,0.132-0.79c0-0.286-0.051-0.554-0.154-0.803c-0.103-0.25-0.24-0.466-0.411-0.651
		c-0.172-0.185-0.373-0.328-0.603-0.429c-0.23-0.102-0.473-0.152-0.728-0.152h-2.955V46.263z"/>
	<path fill="#FFFFFF" d="M53.319,41.069h1.117l4.264,9.833h-1.412l-1.234-2.881h-4.381l-1.22,2.881h-1.411L53.319,41.069z
		 M55.76,47.052l-1.882-4.543l-1.94,4.543H55.76z"/>
	<path fill="#FFFFFF" d="M60.831,50.903v-9.833H65.3c0.461,0,0.885,0.089,1.272,0.27c0.387,0.18,0.721,0.42,1,0.72
		c0.279,0.3,0.497,0.637,0.654,1.011c0.157,0.374,0.235,0.755,0.235,1.143c0,0.342-0.051,0.672-0.155,0.99
		c-0.103,0.319-0.25,0.607-0.441,0.866c-0.191,0.259-0.421,0.48-0.691,0.665c-0.27,0.185-0.571,0.318-0.904,0.402l2.529,3.767h-1.5
		l-2.381-3.532h-2.764v3.532H60.831z M62.155,46.263h3.161c0.274,0,0.522-0.055,0.742-0.166c0.221-0.111,0.409-0.26,0.566-0.45
		c0.157-0.189,0.279-0.408,0.368-0.658c0.088-0.25,0.132-0.508,0.132-0.776c0-0.277-0.052-0.538-0.154-0.783
		c-0.103-0.244-0.24-0.461-0.412-0.65c-0.171-0.189-0.372-0.337-0.603-0.443c-0.23-0.106-0.473-0.159-0.728-0.159h-3.072V46.263z"/>
	<path fill="#FFFFFF" d="M71.225,50.903v-9.833h1.324v9.833H71.225z"/>
	<path fill="#FFFFFF" d="M81.913,43.133c-0.118-0.129-0.275-0.254-0.471-0.374c-0.196-0.12-0.417-0.229-0.662-0.326
		c-0.245-0.097-0.512-0.175-0.801-0.235c-0.29-0.06-0.591-0.09-0.904-0.09c-0.814,0-1.409,0.143-1.787,0.429
		c-0.377,0.287-0.565,0.679-0.565,1.177c0,0.268,0.054,0.49,0.162,0.665c0.107,0.176,0.277,0.325,0.507,0.45
		c0.23,0.125,0.517,0.233,0.86,0.325c0.343,0.093,0.75,0.19,1.22,0.291c0.539,0.111,1.027,0.238,1.463,0.381
		c0.436,0.144,0.809,0.321,1.117,0.533c0.309,0.212,0.544,0.471,0.706,0.776C82.919,47.44,83,47.814,83,48.257
		c0,0.471-0.098,0.88-0.294,1.226c-0.196,0.346-0.463,0.632-0.801,0.858c-0.338,0.227-0.737,0.393-1.198,0.499
		C80.246,50.947,79.746,51,79.208,51c-0.804,0-1.565-0.118-2.286-0.353c-0.72-0.236-1.375-0.58-1.963-1.032l0.632-1.053
		c0.157,0.157,0.36,0.314,0.61,0.471c0.25,0.157,0.534,0.298,0.853,0.422c0.318,0.125,0.662,0.227,1.029,0.305
		c0.367,0.079,0.752,0.118,1.153,0.118c0.745,0,1.324-0.125,1.735-0.374c0.412-0.25,0.618-0.623,0.618-1.122
		c0-0.277-0.066-0.51-0.198-0.7s-0.326-0.354-0.581-0.492c-0.255-0.139-0.571-0.261-0.949-0.367
		c-0.377-0.106-0.806-0.215-1.286-0.326c-0.529-0.12-0.995-0.249-1.396-0.388c-0.402-0.139-0.738-0.305-1.007-0.499
		c-0.27-0.194-0.473-0.43-0.61-0.707s-0.206-0.609-0.206-0.997c0-0.471,0.093-0.887,0.279-1.247c0.187-0.36,0.446-0.665,0.779-0.914
		c0.333-0.249,0.73-0.436,1.191-0.561c0.46-0.125,0.96-0.187,1.5-0.187c0.706,0,1.342,0.102,1.911,0.304
		c0.568,0.204,1.073,0.476,1.514,0.817L81.913,43.133z"/>
</g>
<path fill="#E03470" d="M9.306,0.468c1.015-1.912-7.977,2.171-9.243,9.713c-0.381,2.275,1.021,4.031,2.712,4.915
	c-0.324-0.352-0.554-0.803-0.619-1.358C1.649,9.447,5.881,5.807,5.631,7.004c-0.934,4.495,2.435,3.969,2.558,6.036
	c0.076,1.296-0.644,2.172-1.599,2.633c1.87-0.296,3.551-1.43,4.067-3.686C11.475,8.416,5.491,7.638,9.306,0.468z"/>
</svg>
