<?xml version="1.0" encoding="utf-8"?>
<!-- Generator: Adobe Illustrator 16.0.0, SVG Export Plug-In . SVG Version: 6.00 Build 0)  -->
<!DOCTYPE svg PUBLIC "-//W3C//DTD SVG 1.1//EN" "http://www.w3.org/Graphics/SVG/1.1/DTD/svg11.dtd">
<svg version="1.1" id="Capa_1" xmlns="http://www.w3.org/2000/svg" xmlns:xlink="http://www.w3.org/1999/xlink" x="0px" y="0px"
	 width="131px" height="28px" viewBox="0 0 131 28" enable-background="new 0 0 131 28" xml:space="preserve">
<circle fill="#27CCC0" cx="14" cy="14" r="14"/>
<path fill="#FFFFFF" d="M18.703,4.598c1.295-2.44-10.18,2.771-11.795,12.394c-0.487,2.903,1.303,5.145,3.46,6.272
	c-0.413-0.448-0.706-1.024-0.789-1.733c-0.647-5.476,4.753-10.12,4.435-8.592c-1.191,5.735,3.107,5.064,3.264,7.702
	c0.098,1.653-0.821,2.771-2.04,3.359c2.387-0.378,4.532-1.824,5.19-4.704C21.471,14.739,13.834,13.747,18.703,4.598z"/>
<g>
	<g>
		<path fill="#333333" d="M34.373,3.303c0-0.557,0.137-0.964,0.41-1.223s0.615-0.388,1.025-0.388c0.391,0,0.728,0.132,1.011,0.396
			s0.425,0.669,0.425,1.216s-0.142,0.955-0.425,1.223c-0.283,0.27-0.62,0.403-1.011,0.403c-0.41,0-0.752-0.134-1.025-0.403
			C34.51,4.258,34.373,3.85,34.373,3.303z M37.01,23.708h-2.432V7.653h2.432V23.708z"/>
		<path fill="#333333" d="M52.553,23.708V13.322c0-1.309-0.299-2.285-0.895-2.93s-1.527-0.967-2.797-0.967
			c-1.68,0-2.91,0.454-3.691,1.362s-1.172,2.407-1.172,4.497v8.423h-2.432V7.653h1.977l0.396,2.197h0.117
			c0.498-0.791,1.195-1.403,2.094-1.839c0.898-0.434,1.9-0.651,3.004-0.651c1.934,0,3.389,0.466,4.365,1.399
			c0.977,0.932,1.465,2.424,1.465,4.475v10.474H52.553z"/>
		<path fill="#333333" d="M64.564,21.994c0.43,0,0.845-0.031,1.245-0.096c0.4-0.063,0.718-0.129,0.952-0.197v1.86
			c-0.264,0.127-0.652,0.231-1.164,0.315c-0.514,0.082-0.975,0.124-1.385,0.124c-3.105,0-4.658-1.636-4.658-4.907V9.543h-2.3V8.371
			l2.3-1.011l1.025-3.428h1.406v3.721h4.658v1.89h-4.658v9.448c0,0.967,0.229,1.709,0.688,2.227S63.764,21.994,64.564,21.994z"/>
		<path fill="#333333" d="M76.152,24.001c-2.373,0-4.246-0.723-5.617-2.168c-1.373-1.445-2.059-3.452-2.059-6.021
			c0-2.588,0.637-4.644,1.912-6.167c1.273-1.523,2.985-2.285,5.134-2.285c2.012,0,3.604,0.661,4.775,1.985
			c1.172,1.322,1.758,3.068,1.758,5.236v1.538h-11.06c0.049,1.885,0.525,3.315,1.428,4.292c0.904,0.977,2.176,1.465,3.816,1.465
			c1.729,0,3.438-0.361,5.127-1.084v2.168c-0.859,0.371-1.672,0.637-2.439,0.799C78.162,23.92,77.236,24.001,76.152,24.001z
			 M75.493,9.396c-1.289,0-2.317,0.42-3.083,1.26c-0.768,0.84-1.219,2.002-1.355,3.486h8.394c0-1.533-0.342-2.707-1.025-3.523
			C77.739,9.805,76.763,9.396,75.493,9.396z"/>
		<path fill="#333333" d="M96.588,23.708V13.322c0-1.309-0.299-2.285-0.895-2.93s-1.527-0.967-2.797-0.967
			c-1.68,0-2.91,0.454-3.691,1.362s-1.172,2.407-1.172,4.497v8.423h-2.432V7.653h1.977l0.396,2.197h0.117
			c0.498-0.791,1.195-1.403,2.094-1.839c0.898-0.434,1.9-0.651,3.004-0.651c1.934,0,3.389,0.466,4.365,1.399
			c0.977,0.932,1.465,2.424,1.465,4.475v10.474H96.588z"/>
		<path fill="#333333" d="M113.771,19.328c0,1.494-0.557,2.646-1.67,3.457s-2.676,1.216-4.688,1.216
			c-2.129,0-3.789-0.337-4.98-1.011v-2.256c0.771,0.391,1.599,0.698,2.483,0.923c0.883,0.225,1.735,0.337,2.556,0.337
			c1.27,0,2.246-0.203,2.93-0.607c0.684-0.406,1.025-1.023,1.025-1.854c0-0.625-0.271-1.16-0.813-1.604
			c-0.541-0.445-1.599-0.97-3.171-1.575c-1.494-0.557-2.556-1.042-3.187-1.458c-0.629-0.414-1.098-0.886-1.406-1.413
			c-0.307-0.527-0.461-1.157-0.461-1.89c0-1.309,0.532-2.342,1.597-3.098c1.064-0.758,2.524-1.136,4.38-1.136
			c1.729,0,3.418,0.352,5.068,1.055l-0.864,1.978c-1.611-0.664-3.071-0.996-4.38-0.996c-1.152,0-2.021,0.181-2.607,0.542
			s-0.879,0.859-0.879,1.494c0,0.43,0.109,0.796,0.33,1.099c0.219,0.303,0.573,0.591,1.062,0.864s1.426,0.669,2.813,1.187
			c1.904,0.693,3.19,1.392,3.86,2.095C113.436,17.38,113.771,18.264,113.771,19.328z"/>
		<path fill="#333333" d="M130.982,15.666c0,2.617-0.658,4.66-1.977,6.131c-1.318,1.469-3.141,2.204-5.465,2.204
			c-1.436,0-2.709-0.337-3.822-1.011s-1.973-1.641-2.578-2.9s-0.908-2.734-0.908-4.424c0-2.617,0.654-4.656,1.963-6.115
			c1.309-1.461,3.125-2.19,5.449-2.19c2.246,0,4.03,0.747,5.354,2.241S130.982,13.117,130.982,15.666z M118.752,15.666
			c0,2.051,0.41,3.613,1.23,4.688s2.025,1.611,3.617,1.611s2.801-0.535,3.626-1.604c0.825-1.07,1.237-2.635,1.237-4.695
			c0-2.041-0.412-3.592-1.237-4.65c-0.825-1.061-2.044-1.59-3.655-1.59c-1.592,0-2.793,0.522-3.604,1.567
			S118.752,13.596,118.752,15.666z"/>
	</g>
</g>
</svg>
