<?xml version="1.0" encoding="utf-8"?>
<!-- Generator: Adobe Illustrator 16.0.0, SVG Export Plug-In . SVG Version: 6.00 Build 0)  -->
<!DOCTYPE svg PUBLIC "-//W3C//DTD SVG 1.1//EN" "http://www.w3.org/Graphics/SVG/1.1/DTD/svg11.dtd">
<svg version="1.1" id="Capa_1" xmlns="http://www.w3.org/2000/svg" xmlns:xlink="http://www.w3.org/1999/xlink" x="0px" y="0px"
	 width="142px" height="25px" viewBox="0 0 142 25" enable-background="new 0 0 142 25" xml:space="preserve">
<path fill="#5787F5" d="M15.902,1.688C17.391-1.119,4.195,4.874,2.336,15.94c-0.56,3.339,1.5,5.917,3.979,7.214
	c-0.475-0.516-0.812-1.179-0.908-1.994c-0.744-6.297,5.467-11.638,5.1-9.88c-1.37,6.595,3.573,5.824,3.752,8.857
	c0.114,1.902-0.944,3.188-2.345,3.863c2.745-0.434,5.213-2.098,5.97-5.409C19.083,13.351,10.302,12.209,15.902,1.688z"/>
<g>
	<g>
		<path fill="#FFFFFF" d="M29.91,22.708h-2.804V2.091h2.804V22.708z"/>
		<path fill="#FFFFFF" d="M50.174,22.708h-2.79L37.458,6.764l-0.085,0.028v15.916h-2.79V2.091h2.79l9.926,15.916l0.085-0.028V2.091
			h2.79V22.708z"/>
		<path fill="#FFFFFF" d="M68.243,4.286h-6.627v18.422h-2.79V4.286h-6.613V2.091h16.029V4.286z"/>
		<path fill="#FFFFFF" d="M82.928,13.15h-9.445v7.364h10.889v2.194H70.693V2.091h13.523v2.195H73.482v6.669h9.445V13.15z"/>
		<path fill="#FFFFFF" d="M102.653,22.708h-2.79L89.938,6.764l-0.085,0.028v15.916h-2.79V2.091h2.79l9.927,15.916l0.084-0.028V2.091
			h2.79V22.708z"/>
		<path fill="#FFFFFF" d="M118.4,17.516c0-0.938-0.354-1.724-1.063-2.357c-0.708-0.633-1.963-1.166-3.767-1.598
			c-2.181-0.521-3.882-1.287-5.104-2.299s-1.834-2.286-1.834-3.818c0-1.609,0.658-2.952,1.976-4.031
			c1.316-1.079,3.022-1.618,5.118-1.618c2.257,0,4.053,0.618,5.389,1.855s1.98,2.671,1.933,4.305l-0.028,0.085h-2.662
			c0-1.208-0.398-2.186-1.196-2.931s-1.942-1.119-3.435-1.119c-1.387,0-2.451,0.314-3.192,0.941
			c-0.741,0.628-1.112,1.447-1.112,2.457c0,0.897,0.402,1.645,1.204,2.244c0.802,0.6,2.104,1.126,3.908,1.579
			c2.171,0.538,3.823,1.331,4.956,2.379s1.699,2.346,1.699,3.894c0,1.662-0.68,2.998-2.039,4.008s-3.135,1.516-5.324,1.516
			c-2.059,0-3.877-0.56-5.459-1.679c-1.581-1.118-2.348-2.612-2.301-4.481l0.028-0.085h2.662c0,1.321,0.486,2.327,1.458,3.017
			c0.973,0.688,2.176,1.033,3.611,1.033c1.406,0,2.521-0.295,3.342-0.887S118.4,18.53,118.4,17.516z"/>
		<path fill="#FFFFFF" d="M140.277,14.24c0,2.521-0.781,4.611-2.344,6.273c-1.562,1.661-3.589,2.492-6.081,2.492
			c-2.407,0-4.364-0.831-5.87-2.492c-1.505-1.662-2.258-3.753-2.258-6.273v-3.667c0-2.511,0.753-4.602,2.258-6.273
			c1.506-1.671,3.463-2.506,5.87-2.506c2.492,0,4.52,0.833,6.081,2.5c1.563,1.666,2.344,3.759,2.344,6.28V14.24z M137.488,10.544
			c0-1.888-0.51-3.436-1.529-4.645s-2.389-1.813-4.106-1.813c-1.624,0-2.919,0.604-3.888,1.813
			c-0.967,1.208-1.451,2.756-1.451,4.645v3.696c0,1.906,0.484,3.465,1.451,4.673c0.969,1.208,2.264,1.813,3.888,1.813
			c1.728,0,3.099-0.602,4.114-1.806c1.014-1.203,1.521-2.764,1.521-4.68V10.544z"/>
	</g>
</g>
</svg>
