<?xml version="1.0" encoding="utf-8"?>
<!-- Generator: Adobe Illustrator 16.0.0, SVG Export Plug-In . SVG Version: 6.00 Build 0)  -->
<!DOCTYPE svg PUBLIC "-//W3C//DTD SVG 1.1//EN" "http://www.w3.org/Graphics/SVG/1.1/DTD/svg11.dtd">
<svg version="1.1" id="Capa_1" xmlns="http://www.w3.org/2000/svg" xmlns:xlink="http://www.w3.org/1999/xlink" x="0px" y="0px"
	 width="145.917px" height="25.833px" viewBox="0 0 145.917 25.833" enable-background="new 0 0 145.917 25.833"
	 xml:space="preserve">
<path fill="#A3B5B5" d="M14.652,2.021C16.141-0.786,2.945,5.207,1.086,16.274c-0.56,3.339,1.5,5.917,3.979,7.214
	c-0.475-0.516-0.812-1.179-0.908-1.994c-0.744-6.297,5.467-11.638,5.1-9.88c-1.37,6.595,3.573,5.824,3.752,8.857
	c0.114,1.902-0.944,3.188-2.345,3.863c2.745-0.434,5.213-2.098,5.97-5.409C17.834,13.684,9.052,12.543,14.652,2.021z"/>
<g>
	<g>
		<path fill="#666666" d="M29.024,23.042h-2.813V2.263h2.813V23.042z"/>
		<path fill="#666666" d="M36.021,2.357c0.121,0.063,0.258,0.191,0.413,0.384l12.035,15.66c-0.029-0.252-0.048-0.496-0.058-0.732
			s-0.014-0.467-0.014-0.689V2.263h2.465v20.778H49.44c-0.223,0-0.409-0.038-0.559-0.116c-0.15-0.077-0.297-0.207-0.442-0.391
			L36.419,6.889c0.019,0.242,0.034,0.479,0.043,0.71c0.009,0.232,0.014,0.445,0.014,0.638v14.805h-2.465V2.263h1.45
			C35.713,2.263,35.899,2.294,36.021,2.357z"/>
		<path fill="#666666" d="M69.508,2.263v2.363h-6.713v18.415h-2.813V4.626h-6.743V2.263H69.508z"/>
		<path fill="#666666" d="M84.69,2.263v2.291h-9.976v6.902h8.076v2.204h-8.076v7.09h9.976v2.291H71.886V2.263H84.69z"/>
		<path fill="#666666" d="M90.163,2.357c0.121,0.063,0.259,0.191,0.414,0.384l12.035,15.66c-0.029-0.252-0.049-0.496-0.059-0.732
			s-0.014-0.467-0.014-0.689V2.263h2.465v20.778h-1.422c-0.223,0-0.408-0.038-0.559-0.116c-0.149-0.077-0.297-0.207-0.441-0.391
			L90.562,6.889c0.019,0.242,0.034,0.479,0.044,0.71c0.009,0.232,0.014,0.445,0.014,0.638v14.805h-2.465V2.263h1.45
			C89.856,2.263,90.042,2.294,90.163,2.357z"/>
		<path fill="#666666" d="M120.141,5.511c-0.086,0.145-0.179,0.253-0.275,0.326c-0.096,0.072-0.223,0.108-0.377,0.108
			c-0.164,0-0.355-0.082-0.572-0.246c-0.218-0.165-0.493-0.346-0.826-0.544c-0.334-0.198-0.735-0.379-1.204-0.544
			c-0.469-0.164-1.036-0.246-1.704-0.246c-0.628,0-1.184,0.084-1.667,0.253c-0.483,0.169-0.888,0.399-1.211,0.689
			s-0.567,0.631-0.731,1.022c-0.165,0.392-0.247,0.814-0.247,1.269c0,0.58,0.143,1.061,0.428,1.443s0.662,0.708,1.131,0.979
			s1.001,0.505,1.595,0.703c0.595,0.198,1.203,0.404,1.827,0.616c0.624,0.213,1.233,0.452,1.827,0.718
			c0.595,0.266,1.126,0.602,1.596,1.008c0.469,0.406,0.846,0.904,1.131,1.494c0.285,0.59,0.428,1.314,0.428,2.175
			c0,0.908-0.155,1.762-0.465,2.56c-0.309,0.798-0.761,1.491-1.355,2.081c-0.594,0.59-1.324,1.053-2.189,1.392
			s-1.849,0.507-2.951,0.507c-1.344,0-2.568-0.244-3.676-0.732c-1.106-0.487-2.051-1.146-2.834-1.979l0.812-1.334
			c0.077-0.106,0.172-0.195,0.282-0.268c0.111-0.073,0.234-0.109,0.371-0.109c0.202,0,0.435,0.109,0.695,0.326
			c0.262,0.217,0.588,0.457,0.979,0.718c0.392,0.261,0.865,0.5,1.422,0.718c0.555,0.217,1.234,0.326,2.037,0.326
			c0.666,0,1.262-0.092,1.783-0.275s0.964-0.442,1.326-0.775c0.363-0.334,0.641-0.732,0.834-1.197c0.193-0.463,0.29-0.98,0.29-1.551
			c0-0.629-0.143-1.143-0.428-1.545c-0.285-0.4-0.659-0.736-1.124-1.008c-0.463-0.27-0.992-0.5-1.588-0.688
			c-0.594-0.188-1.203-0.382-1.826-0.58c-0.624-0.198-1.232-0.428-1.827-0.689c-0.595-0.261-1.124-0.599-1.588-1.015
			s-0.839-0.936-1.124-1.559s-0.428-1.394-0.428-2.313c0-0.735,0.143-1.445,0.428-2.132c0.285-0.686,0.699-1.295,1.24-1.827
			s1.211-0.957,2.008-1.276c0.798-0.319,1.713-0.479,2.748-0.479c1.16,0,2.219,0.184,3.176,0.551
			c0.957,0.368,1.793,0.899,2.508,1.595L120.141,5.511z"/>
		<path fill="#666666" d="M143.588,12.66c0,1.556-0.246,2.984-0.74,4.285c-0.492,1.3-1.188,2.418-2.088,3.355
			c-0.898,0.938-1.979,1.666-3.24,2.184c-1.262,0.517-2.656,0.775-4.184,0.775s-2.92-0.259-4.176-0.775
			c-1.257-0.518-2.334-1.245-3.233-2.184c-0.899-0.938-1.595-2.056-2.088-3.355c-0.493-1.301-0.739-2.729-0.739-4.285
			c0-1.557,0.246-2.985,0.739-4.285c0.493-1.3,1.188-2.421,2.088-3.364s1.977-1.675,3.233-2.197
			c1.256-0.522,2.648-0.783,4.176-0.783s2.922,0.261,4.184,0.783s2.342,1.254,3.24,2.197c0.899,0.942,1.596,2.064,2.088,3.364
			C143.342,9.675,143.588,11.103,143.588,12.66z M140.703,12.66c0-1.276-0.174-2.422-0.522-3.437
			c-0.348-1.015-0.84-1.873-1.479-2.574s-1.412-1.24-2.32-1.617c-0.908-0.377-1.924-0.566-3.045-0.566
			c-1.111,0-2.121,0.188-3.03,0.566c-0.909,0.377-1.685,0.916-2.327,1.617s-1.139,1.559-1.486,2.574
			c-0.348,1.015-0.521,2.16-0.521,3.437c0,1.276,0.174,2.419,0.521,3.43c0.348,1.01,0.844,1.865,1.486,2.566
			s1.418,1.236,2.327,1.609c0.909,0.372,1.919,0.559,3.03,0.559c1.121,0,2.137-0.187,3.045-0.559
			c0.908-0.373,1.682-0.908,2.32-1.609s1.131-1.557,1.479-2.566C140.529,15.079,140.703,13.936,140.703,12.66z"/>
	</g>
</g>
</svg>
