<?xml version="1.0" encoding="utf-8"?>
<!-- Generator: Adobe Illustrator 16.0.0, SVG Export Plug-In . SVG Version: 6.00 Build 0)  -->
<!DOCTYPE svg PUBLIC "-//W3C//DTD SVG 1.1//EN" "http://www.w3.org/Graphics/SVG/1.1/DTD/svg11.dtd">
<svg version="1.1" id="Capa_1" xmlns="http://www.w3.org/2000/svg" xmlns:xlink="http://www.w3.org/1999/xlink" x="0px" y="0px"
	 width="100px" height="56px" viewBox="0 0 100 56" enable-background="new 0 0 100 56" xml:space="preserve">
<rect fill="#FFFFFF" width="100" height="56"/>
<path d="M11.158,30.224c0,0,5.49,0.607,5.49-4.167v-0.075c0-4.774-5.49-4.167-5.49-4.167V30.224z M8.696,19.533h4.275
	c2.571,0,6.339,2.292,6.339,6.366l-0.002,0.05l0.002,0.046c0,4.076-3.769,6.368-6.339,6.368H8.696V19.533z"/>
<rect x="20.431" y="19.533" fill-rule="evenodd" clip-rule="evenodd" width="2.614" height="12.85"/>
<path fill-rule="evenodd" clip-rule="evenodd" d="M31.055,22.497c0,0-0.862-0.974-2.017-0.974c-1.155,0-1.822,0.755-1.822,1.304
	c0,0.55-0.021,0.861,1.63,1.537c1.647,0.676,4.072,1.164,4.072,4.025c0,2.859-2.28,4.311-4.331,4.311
	c-3.235,0-4.692-2.438-4.692-2.438l1.628-1.6c0,0,1.034,1.706,2.834,1.706s1.9-1.345,1.9-1.789c0-0.657-0.389-1.303-1.499-1.707
	c-1.112-0.402-4.155-0.803-4.155-3.685c0-2.586,1.97-3.869,4.176-3.869c1.973,0,3.688,1.516,3.688,1.516L31.055,22.497z"/>
<path fill-rule="evenodd" clip-rule="evenodd" d="M43.775,23.028c-0.807-0.819-1.921-1.416-3.176-1.416
	c-2.454,0-4.446,1.956-4.446,4.37c0,2.413,1.992,4.37,4.446,4.37c1.244,0,2.371-0.59,3.18-1.4l-0.004,3.028
	c-0.949,0.489-2.027,0.76-3.176,0.76c-3.798,0-6.878-3.025-6.878-6.758c0-3.734,3.081-6.76,6.878-6.76
	c1.15,0,2.225,0.277,3.176,0.768V23.028z"/>
<polygon points="58.021,19.533 60.833,19.533 64.432,27.951 67.827,19.533 70.64,19.533 65.141,32.71 63.519,32.71 "/>
<path d="M83.099,21.675v3.75h1.405c1.081,0,1.764-0.958,1.764-1.795v-0.161c0-0.837-0.684-1.794-1.764-1.794H83.099z M80.549,19.533
	h4.263c1.363,0,4.069,0.728,4.069,3.786s-2.8,3.691-2.8,3.691l3.993,5.373h-3.176l-3.529-5.129h-0.27v5.129h-2.552V19.533z"/>
<polygon points="78.651,24.597 78.651,26.864 74.21,26.864 74.21,30.116 78.857,30.116 78.857,32.383 71.614,32.383 71.614,19.533 
	78.857,19.533 78.857,21.798 74.21,21.798 74.21,24.597 "/>
<path fill-rule="evenodd" clip-rule="evenodd" fill="#FF6600" d="M38.111,56c0,0,16.043-2.557,33.573-9.548
	C89.136,40.092,100,34.509,100,34.509V56H38.111z"/>
<radialGradient id="SVGID_1_" cx="51.6943" cy="26.4863" r="6.783" gradientTransform="matrix(1 0 0 0.9825 0 0)" gradientUnits="userSpaceOnUse">
	<stop  offset="0" style="stop-color:#FFFFFF"/>
	<stop  offset="1" style="stop-color:#FF6600"/>
</radialGradient>
<ellipse fill-rule="evenodd" clip-rule="evenodd" fill="url(#SVGID_1_)" cx="51.694" cy="26.021" rx="6.783" ry="6.665"/>
</svg>
