<?xml version="1.0" encoding="utf-8"?>
<!-- Generator: Adobe Illustrator 16.0.0, SVG Export Plug-In . SVG Version: 6.00 Build 0)  -->
<!DOCTYPE svg PUBLIC "-//W3C//DTD SVG 1.1//EN" "http://www.w3.org/Graphics/SVG/1.1/DTD/svg11.dtd">
<svg version="1.1" id="Capa_1" xmlns="http://www.w3.org/2000/svg" xmlns:xlink="http://www.w3.org/1999/xlink" x="0px" y="0px"
	 width="100px" height="56px" viewBox="0 0 100 56" enable-background="new 0 0 100 56" xml:space="preserve">
<rect fill="#FFFFFF" width="100" height="56"/>
<g>
	<path fill-rule="evenodd" clip-rule="evenodd" fill="#E6B63A" d="M50.019,45.093c4.125,3.708,9.666,5.953,15.693,5.953
		c12.942,0,23.418-10.287,23.418-22.939c0-12.689-10.477-22.98-23.418-22.98c-6.027,0-11.568,2.248-15.693,5.953
		c-4.732,4.217-7.726,10.291-7.726,17.027C42.293,34.848,45.287,40.918,50.019,45.093L50.019,45.093z"/>
	<path fill-rule="evenodd" clip-rule="evenodd" fill="#BF0024" d="M57.583,25.663c-0.081-0.826-0.244-1.614-0.405-2.444H42.86
		c0.162-0.826,0.403-1.614,0.647-2.403H56.49c-0.282-0.826-0.607-1.656-0.97-2.444H44.519c0.405-0.826,0.849-1.652,1.335-2.444h8.29
		c-0.526-0.826-1.131-1.656-1.779-2.403h-4.732c0.728-0.867,1.537-1.693,2.386-2.444c-4.165-3.667-9.666-5.953-15.733-5.953
		c-12.901,0-23.416,10.291-23.416,22.98c0,12.652,10.515,22.939,23.416,22.939c6.067,0,11.568-2.245,15.733-5.953l0,0l0,0
		c0.849-0.747,1.618-1.535,2.346-2.403h-4.732c-0.647-0.788-1.214-1.577-1.779-2.444h8.29c0.526-0.789,0.97-1.577,1.375-2.444
		H44.519c-0.365-0.785-0.728-1.573-1.011-2.403H56.49c0.285-0.788,0.486-1.614,0.688-2.444c0.161-0.789,0.325-1.615,0.405-2.44
		c0.081-0.792,0.121-1.577,0.121-2.407C57.704,27.281,57.664,26.451,57.583,25.663L57.583,25.663z"/>
	<path fill-rule="evenodd" clip-rule="evenodd" fill="#003772" d="M42.052,34.727c-0.769,0.201-1.335,0.317-1.9,0.317
		c-1.214,0-1.942-0.75-1.942-2.089c0-0.275,0.041-0.551,0.081-0.864l0.162-0.909l0.123-0.747l1.091-6.466h2.426l-0.282,1.419h1.537
		l-0.365,2.365h-1.537l-0.647,3.863c-0.04,0.196-0.04,0.313-0.04,0.396c0,0.509,0.242,0.706,0.849,0.706
		c0.284,0,0.526-0.038,0.769-0.076L42.052,34.727L42.052,34.727z"/>
	<path fill-rule="evenodd" clip-rule="evenodd" fill="#003772" d="M49.898,34.652c-0.889,0.233-1.698,0.35-2.59,0.35
		c-2.749,0-4.327-1.414-4.327-4.217c0-3.266,1.86-5.631,4.45-5.631c2.062,0,3.397,1.339,3.397,3.425c0,0.713-0.081,1.38-0.283,2.328
		h-5.057c-0.041,0.159-0.041,0.233-0.041,0.313c0,1.106,0.769,1.656,2.225,1.656c0.93,0,1.739-0.196,2.628-0.588L49.898,34.652
		L49.898,34.652z M48.401,29.017c0-0.2,0-0.359,0-0.476c0-0.789-0.444-1.222-1.214-1.222c-0.809,0-1.374,0.592-1.618,1.698H48.401
		L48.401,29.017z"/>
	<polygon fill-rule="evenodd" clip-rule="evenodd" fill="#003772" points="22.637,34.848 20.13,34.848 21.586,25.9 18.311,34.848 
		16.572,34.848 16.368,25.942 14.831,34.848 12.364,34.848 14.347,23.218 18.028,23.218 18.109,30.393 20.576,23.218 24.62,23.218 
		22.637,34.848 	"/>
	<path fill-rule="evenodd" clip-rule="evenodd" fill="#003772" d="M28.745,30.626c-0.242-0.033-0.323-0.033-0.484-0.033
		c-1.456,0-2.185,0.546-2.185,1.418c0,0.589,0.363,0.985,0.93,0.985C28.218,32.996,28.705,32.011,28.745,30.626L28.745,30.626z
		 M30.768,34.848h-2.185l0.041-0.984c-0.567,0.747-1.335,1.139-2.671,1.139c-1.212,0-2.263-1.059-2.263-2.599
		c0-0.434,0.081-0.826,0.202-1.222c0.404-1.46,1.9-2.365,4.206-2.403c0.285,0,0.729,0,1.134,0.038
		c0.081-0.313,0.081-0.434,0.081-0.63c0-0.634-0.526-0.826-1.698-0.826c-0.728,0-1.537,0.117-2.104,0.313l-0.365,0.079l-0.162,0.042
		l0.365-2.132c1.172-0.354,2.021-0.509,2.953-0.509c2.182,0,3.356,0.984,3.356,2.795c0,0.475,0.04,0.83-0.121,1.852l-0.567,3.391
		l-0.081,0.592l-0.041,0.472l-0.04,0.317L30.768,34.848L30.768,34.848z"/>
	<path fill-rule="evenodd" clip-rule="evenodd" fill="#003772" d="M62.111,25.467c0.729,0,1.376,0.196,2.265,0.63l0.446-2.524
		c-0.242-0.117-0.325-0.117-0.648-0.234l-1.012-0.275c-0.323-0.08-0.726-0.121-1.172-0.121c-1.253,0-1.981,0.042-2.75,0.476
		c-0.405,0.275-0.932,0.63-1.497,1.259l-0.325-0.079l-2.588,1.773l0.121-0.984h-2.668l-1.577,9.46h2.547l0.93-5.085
		c0,0,0.365-0.709,0.526-0.947c0.486-0.592,0.89-0.592,1.416-0.592c0.081,0,0.161,0,0.202,0c-0.081,0.555-0.121,1.143-0.121,1.814
		c0,3.075,1.779,5.006,4.53,5.006c0.686,0,1.293-0.079,2.223-0.317l0.446-2.678c-0.809,0.434-1.537,0.63-2.145,0.63
		c-1.497,0-2.386-1.102-2.386-2.836C58.876,27.281,60.211,25.467,62.111,25.467L62.111,25.467z"/>
	<path fill-rule="evenodd" clip-rule="evenodd" fill="#003772" d="M83.587,23.218l-0.565,3.312
		c-0.607-0.905-1.335-1.339-2.305-1.339c-1.335,0-2.59,0.75-3.356,2.169v-0.042l-1.618-0.947l0.161-0.984h-2.711l-1.537,9.46h2.509
		l0.849-5.085c0,0,0.646-0.709,0.809-0.947c0.403-0.472,0.809-0.551,1.131-0.592c-0.282,0.792-0.446,1.735-0.446,2.799
		c0,2.365,1.255,3.942,3.115,3.942c0.932,0,1.66-0.313,2.346-1.063l-0.121,0.947h2.386l1.942-11.63H83.587L83.587,23.218z
		 M80.475,32.6c-0.851,0-1.295-0.63-1.295-1.852c0-1.853,0.809-3.196,1.98-3.196c0.892,0,1.335,0.672,1.335,1.856
		C82.496,31.298,81.688,32.6,80.475,32.6L80.475,32.6z"/>
	<path fill-rule="evenodd" clip-rule="evenodd" fill="#003772" d="M68.786,30.626c-0.244-0.033-0.325-0.033-0.486-0.033
		c-1.456,0-2.185,0.546-2.185,1.418c0,0.589,0.365,0.985,0.932,0.985C68.26,32.996,68.746,32.011,68.786,30.626L68.786,30.626z
		 M70.807,34.848h-2.225l0.083-0.984c-0.567,0.747-1.335,1.139-2.67,1.139c-1.253,0-2.346-1.022-2.346-2.599
		c0-2.249,1.739-3.625,4.49-3.625c0.282,0,0.728,0,1.091,0.038c0.081-0.313,0.121-0.434,0.121-0.63c0-0.634-0.524-0.826-1.738-0.826
		c-0.688,0-1.537,0.117-2.102,0.313l-0.325,0.079l-0.161,0.042l0.363-2.132c1.174-0.354,2.023-0.509,2.953-0.509
		c2.185,0,3.316,0.984,3.316,2.795c0,0.475,0.081,0.83-0.121,1.852l-0.526,3.391l-0.081,0.592l-0.081,0.472l-0.041,0.317V34.848
		L70.807,34.848z"/>
	<path fill-rule="evenodd" clip-rule="evenodd" fill="#003772" d="M36.065,27.398c0.486,0,1.174,0.042,1.902,0.154l0.363-2.203
		c-0.728-0.079-1.698-0.196-2.265-0.196c-2.83,0-3.762,1.493-3.762,3.229c0,1.143,0.526,1.973,1.902,2.603
		c1.011,0.472,1.172,0.551,1.172,0.984c0,0.592-0.524,0.947-1.495,0.947c-0.769,0-1.497-0.121-2.305-0.396l-0.285,2.169l0.041,0.038
		l0.486,0.08c0.162,0.042,0.363,0.079,0.647,0.121c0.607,0.037,1.132,0.075,1.455,0.075c2.832,0,4.006-1.059,4.006-3.149
		c0-1.301-0.647-2.09-1.902-2.645c-1.091-0.472-1.212-0.551-1.212-0.984C34.813,27.794,35.296,27.398,36.065,27.398L36.065,27.398z"
		/>
	<path fill-rule="evenodd" clip-rule="evenodd" fill="#FFFFFF" d="M65.51,22.826l-0.446,2.523c-0.89-0.434-1.537-0.63-2.265-0.63
		c-1.9,0-3.235,1.811-3.235,4.372c0,1.777,0.89,2.837,2.386,2.837c0.607,0,1.335-0.196,2.144-0.588l-0.446,2.641
		c-0.93,0.234-1.537,0.354-2.225,0.354c-2.75,0-4.448-1.931-4.448-5.043c0-4.138,2.346-7.058,5.702-7.058
		c0.446,0,0.849,0.042,1.174,0.121l1.01,0.234C65.186,22.709,65.266,22.747,65.51,22.826L65.51,22.826z"/>
	<path fill-rule="evenodd" clip-rule="evenodd" fill="#FFFFFF" d="M57.339,24.562c-0.081,0-0.161,0-0.242,0
		c-0.849,0-1.335,0.392-2.104,1.535l0.242-1.456h-2.304l-1.577,9.457h2.547c0.93-5.79,1.172-6.778,2.386-6.778
		c0.081,0,0.081,0,0.162,0c0.242-1.143,0.567-1.969,0.97-2.72L57.339,24.562L57.339,24.562z"/>
	<path fill-rule="evenodd" clip-rule="evenodd" fill="#FFFFFF" d="M42.699,33.98c-0.688,0.234-1.255,0.313-1.819,0.313
		c-1.295,0-2.023-0.705-2.023-2.086c0-0.238,0.041-0.555,0.081-0.83l0.162-0.943l0.121-0.751l1.093-6.465h2.507l-0.285,1.422h1.295
		l-0.323,2.324h-1.295l-0.688,3.942c-0.04,0.159-0.04,0.275-0.04,0.392c0,0.476,0.242,0.672,0.849,0.672
		c0.282,0,0.526,0,0.688-0.079L42.699,33.98L42.699,33.98z"/>
	<path fill-rule="evenodd" clip-rule="evenodd" fill="#FFFFFF" d="M32.951,27.631c0,1.185,0.566,2.011,1.902,2.645
		c1.051,0.472,1.212,0.63,1.212,1.021c0,0.593-0.444,0.868-1.454,0.868c-0.771,0-1.457-0.117-2.266-0.354L31.98,33.98l0.121,0.038
		l0.446,0.079c0.161,0.042,0.363,0.079,0.688,0.079c0.567,0.08,1.051,0.08,1.376,0.08c2.668,0,3.921-0.984,3.921-3.153
		c0-1.302-0.524-2.049-1.779-2.641c-1.091-0.471-1.214-0.592-1.214-1.022c0-0.513,0.446-0.75,1.254-0.75
		c0.486,0,1.174,0.042,1.819,0.117l0.365-2.165c-0.647-0.121-1.658-0.196-2.225-0.196C33.921,24.445,32.91,25.9,32.951,27.631
		L32.951,27.631z"/>
	<path fill-rule="evenodd" clip-rule="evenodd" fill="#FFFFFF" d="M84.882,34.097h-2.386l0.121-0.905
		c-0.688,0.709-1.414,1.022-2.346,1.022c-1.86,0-3.074-1.535-3.074-3.901c0-3.153,1.902-5.835,4.127-5.835
		c1.011,0,1.739,0.438,2.427,1.306l0.564-3.313h2.509L84.882,34.097L84.882,34.097z M81.161,31.891c1.174,0,1.983-1.339,1.983-3.191
		c0-1.222-0.446-1.852-1.335-1.852c-1.131,0-1.98,1.298-1.98,3.154C79.828,31.261,80.271,31.891,81.161,31.891L81.161,31.891z"/>
	<path fill-rule="evenodd" clip-rule="evenodd" fill="#FFFFFF" d="M50.465,33.901c-0.89,0.275-1.7,0.392-2.63,0.392
		c-2.83,0-4.286-1.456-4.286-4.255c0-3.232,1.86-5.635,4.409-5.635c2.102,0,3.438,1.339,3.438,3.428
		c0,0.709-0.081,1.377-0.325,2.366h-5.014c-0.041,0.116-0.041,0.196-0.041,0.275c0,1.105,0.769,1.656,2.225,1.656
		c0.93,0,1.739-0.159,2.628-0.592L50.465,33.901L50.465,33.901z M49.049,28.266c0-0.2,0-0.354,0-0.471
		c0-0.789-0.446-1.227-1.214-1.227c-0.809,0-1.375,0.592-1.618,1.698H49.049L49.049,28.266z"/>
	<polygon fill-rule="evenodd" clip-rule="evenodd" fill="#FFFFFF" points="23.285,34.097 20.777,34.097 22.234,25.154 
		18.958,34.097 17.217,34.097 17.016,25.229 15.479,34.097 13.133,34.097 15.116,22.471 18.756,22.471 18.877,29.684 21.304,22.471 
		25.268,22.471 23.285,34.097 	"/>
	<path fill-rule="evenodd" clip-rule="evenodd" fill="#FFFFFF" d="M29.554,29.88c-0.242,0-0.363-0.037-0.567-0.037
		c-1.416,0-2.142,0.513-2.142,1.455c0,0.593,0.323,0.947,0.89,0.947C28.785,32.245,29.513,31.298,29.554,29.88L29.554,29.88z
		 M31.414,34.097h-2.102l0.041-0.984c-0.647,0.789-1.497,1.143-2.671,1.143c-1.374,0-2.303-1.026-2.303-2.561
		c0-2.328,1.618-3.667,4.448-3.667c0.284,0,0.647,0.038,1.053,0.079c0.081-0.313,0.081-0.434,0.081-0.588
		c0-0.634-0.446-0.872-1.618-0.872c-0.728,0-1.537,0.083-2.104,0.238l-0.365,0.121l-0.242,0.038l0.365-2.127
		c1.252-0.354,2.102-0.471,3.034-0.471c2.183,0,3.356,0.943,3.356,2.757c0,0.472-0.041,0.826-0.204,1.89l-0.565,3.35l-0.081,0.592
		l-0.041,0.471l-0.042,0.359L31.414,34.097L31.414,34.097z"/>
	<path fill-rule="evenodd" clip-rule="evenodd" fill="#FFFFFF" d="M69.595,29.88c-0.284,0-0.405-0.037-0.566-0.037
		c-1.457,0-2.185,0.513-2.185,1.455c0,0.593,0.365,0.947,0.93,0.947C68.786,32.245,69.555,31.298,69.595,29.88L69.595,29.88z
		 M71.455,34.097h-2.104l0.041-0.984c-0.646,0.789-1.495,1.143-2.668,1.143c-1.376,0-2.306-1.026-2.306-2.561
		c0-2.328,1.618-3.667,4.45-3.667c0.282,0,0.647,0.038,1.011,0.079c0.081-0.313,0.121-0.434,0.121-0.588
		c0-0.634-0.444-0.872-1.618-0.872c-0.728,0-1.577,0.083-2.142,0.238l-0.325,0.121l-0.242,0.038l0.363-2.127
		c1.255-0.354,2.104-0.471,3.034-0.471c2.185,0,3.316,0.943,3.316,2.757c0,0.472,0,0.826-0.202,1.89l-0.526,3.35l-0.081,0.592
		l-0.081,0.471l-0.041,0.359V34.097L71.455,34.097z"/>
	<path fill-rule="evenodd" clip-rule="evenodd" fill="#FFFFFF" d="M78.25,24.562c-0.083,0-0.164,0-0.244,0
		c-0.85,0-1.333,0.392-2.102,1.535l0.242-1.456h-2.306l-1.537,9.457h2.507c0.932-5.79,1.174-6.778,2.386-6.778
		c0.081,0,0.081,0,0.164,0c0.242-1.143,0.564-1.969,0.97-2.72L78.25,24.562L78.25,24.562z"/>
</g>
</svg>
