<?xml version="1.0" encoding="utf-8"?>
<!-- Generator: Adobe Illustrator 16.0.0, SVG Export Plug-In . SVG Version: 6.00 Build 0)  -->
<!DOCTYPE svg PUBLIC "-//W3C//DTD SVG 1.1//EN" "http://www.w3.org/Graphics/SVG/1.1/DTD/svg11.dtd">
<svg version="1.1" id="Capa_1" xmlns="http://www.w3.org/2000/svg" xmlns:xlink="http://www.w3.org/1999/xlink" x="0px" y="0px"
	 width="100px" height="56px" viewBox="0 0 100 56" enable-background="new 0 0 100 56" xml:space="preserve">
<rect fill="#FFFFFF" width="100" height="56"/>
<g>
	<path fill-rule="evenodd" clip-rule="evenodd" fill="#4897D2" d="M50,45.477c4.728-4.24,7.696-10.366,7.696-17.176
		c0-6.812-2.968-12.936-7.696-17.176c-4.155-3.727-9.668-5.998-15.718-5.998c-12.929,0-23.412,10.376-23.412,23.174
		c0,12.798,10.483,23.172,23.412,23.172C40.332,51.474,45.845,49.205,50,45.477L50,45.477z"/>
	<path fill-rule="evenodd" clip-rule="evenodd" fill="#BF0024" d="M65.716,5.127c-6.048,0-11.562,2.271-15.716,5.998
		c-0.847,0.759-1.637,1.579-2.365,2.453h4.728c0.647,0.778,1.244,1.596,1.786,2.456h-8.297c-0.499,0.786-0.949,1.606-1.35,2.453
		h10.995c0.375,0.794,0.709,1.614,0.993,2.453H43.51c-0.27,0.801-0.497,1.619-0.68,2.455h14.339
		c0.344,1.583,0.526,3.223,0.526,4.908c0,2.572-0.425,5.047-1.206,7.36H43.51c0.284,0.84,0.616,1.66,0.991,2.455h10.995
		c-0.401,0.847-0.852,1.664-1.348,2.453h-8.297c0.542,0.857,1.138,1.677,1.784,2.453h4.728c-0.728,0.874-1.516,1.695-2.363,2.455
		c4.155,3.728,9.668,5.997,15.716,5.997c12.931,0,23.414-10.375,23.414-23.172C89.13,15.503,78.647,5.127,65.716,5.127L65.716,5.127
		z"/>
	<polygon fill-rule="evenodd" clip-rule="evenodd" fill="#FFFFFF" points="31.358,34.07 28.443,34.07 30.176,25.039 26.189,34.07 
		23.531,34.07 23.045,25.091 21.308,34.07 18.663,34.07 20.924,22.324 25.469,22.324 25.711,29.597 28.917,22.324 33.655,22.324 
		31.358,34.07 	"/>
	<path fill-rule="evenodd" clip-rule="evenodd" fill="#FFFFFF" d="M63.924,33.953c-0.798,0.217-1.422,0.311-2.095,0.311
		c-1.49,0-2.303-0.74-2.303-2.098c0-0.27,0.03-0.555,0.085-0.857l0.178-0.935l0.136-0.757l1.35-7.296h2.898l-0.42,2.194h1.488
		l-0.401,2.324h-1.492l-0.769,3.986C62.544,31,62.53,31.131,62.53,31.221c0,0.492,0.301,0.707,0.994,0.707
		c0.333,0,0.59-0.029,0.785-0.089L63.924,33.953L63.924,33.953z"/>
	<path fill-rule="evenodd" clip-rule="evenodd" fill="#FFFFFF" d="M72.436,24.595c-0.244-0.094-0.302-0.094-0.331-0.103
		c-0.153-0.034-0.236-0.055-0.25-0.057c-0.087-0.017-0.187-0.023-0.293-0.023c-0.958,0-1.646,0.422-2.539,1.55l0.257-1.448H66.64
		l-1.775,9.555h2.915c1.044-5.842,1.49-6.866,2.889-6.866c0.106,0,0.228,0.008,0.368,0.025l0.342,0.067L72.436,24.595L72.436,24.595
		z"/>
	<path fill-rule="evenodd" clip-rule="evenodd" fill="#FFFFFF" d="M52.374,27.534c0,1.209,0.686,2.04,2.244,2.666
		c1.193,0.478,1.377,0.619,1.377,1.053c0,0.594-0.526,0.863-1.692,0.863c-0.879,0-1.698-0.117-2.643-0.377l-0.403,2.203l0.131,0.023
		l0.54,0.098c0.174,0.029,0.431,0.059,0.771,0.083c0.701,0.052,1.244,0.079,1.626,0.079c3.11,0,4.547-1.009,4.547-3.187
		c0-1.314-0.601-2.082-2.079-2.662c-1.235-0.484-1.378-0.59-1.378-1.037c0-0.515,0.491-0.777,1.441-0.777
		c0.58,0,1.37,0.052,2.119,0.141l0.42-2.21c-0.764-0.104-1.921-0.188-2.594-0.188C53.503,24.305,52.363,25.773,52.374,27.534
		L52.374,27.534z"/>
	<path fill-rule="evenodd" clip-rule="evenodd" fill="#FFFFFF" d="M40.831,34.07h-2.422l0.057-0.989
		c-0.739,0.784-1.719,1.156-3.057,1.156c-1.579,0-2.662-1.064-2.662-2.612c0-2.327,1.883-3.683,5.119-3.683
		c0.331,0,0.753,0.025,1.187,0.075c0.091-0.314,0.115-0.45,0.115-0.621c0-0.634-0.507-0.87-1.868-0.87
		c-0.832,0-1.772,0.104-2.422,0.267l-0.403,0.102l-0.261,0.061l0.403-2.148c1.455-0.367,2.412-0.507,3.49-0.507
		c2.503,0,3.828,0.972,3.828,2.803c0,0.472-0.044,0.83-0.238,1.894l-0.609,3.389l-0.102,0.606L40.91,33.48l-0.049,0.332
		L40.831,34.07L40.831,34.07z M38.706,29.815c-0.306-0.033-0.442-0.042-0.652-0.042c-1.652,0-2.488,0.49-2.488,1.456
		c0,0.594,0.408,0.974,1.044,0.974C37.799,32.203,38.655,31.228,38.706,29.815L38.706,29.815z"/>
	<path fill-rule="evenodd" clip-rule="evenodd" fill="#FFFFFF" d="M50.391,33.866c-0.998,0.261-1.964,0.388-2.987,0.386
		c-3.257-0.002-4.955-1.47-4.955-4.28c0-3.281,2.161-5.696,5.093-5.696c2.399,0,3.93,1.354,3.93,3.475
		c0,0.703-0.104,1.389-0.356,2.359h-5.794c-0.021,0.146-0.027,0.213-0.027,0.3c0,1.107,0.864,1.673,2.556,1.673
		c1.04,0,1.98-0.188,3.025-0.605L50.391,33.866L50.391,33.866z M48.839,28.18c0.017-0.2,0.025-0.362,0.025-0.488
		c0-0.775-0.512-1.23-1.38-1.23c-0.928,0-1.59,0.609-1.86,1.712L48.839,28.18L48.839,28.18z"/>
	<path fill-rule="evenodd" clip-rule="evenodd" fill="#FFFFFF" d="M81.494,29.74c-0.438,3.179-2.679,4.587-5.662,4.587
		c-3.297,0-4.628-1.98-4.628-4.403c0-3.387,2.254-5.682,5.738-5.682c3.023,0,4.628,1.885,4.628,4.312
		C81.571,29.144,81.571,29.184,81.494,29.74L81.494,29.74z M78.492,28.516c0-0.999-0.41-1.941-1.605-1.941
		c-1.486,0-2.407,1.74-2.407,3.274c0,1.295,0.63,2.165,1.673,2.148c0.633,0,1.979-0.853,2.244-2.34
		C78.46,29.311,78.492,28.929,78.492,28.516L78.492,28.516z"/>
</g>
</svg>
