<?xml version="1.0" encoding="utf-8"?>
<!-- Generator: Adobe Illustrator 16.0.0, SVG Export Plug-In . SVG Version: 6.00 Build 0)  -->
<!DOCTYPE svg PUBLIC "-//W3C//DTD SVG 1.1//EN" "http://www.w3.org/Graphics/SVG/1.1/DTD/svg11.dtd">
<svg version="1.1" id="Capa_1" xmlns="http://www.w3.org/2000/svg" xmlns:xlink="http://www.w3.org/1999/xlink" x="0px" y="0px"
	 width="100px" height="56px" viewBox="0 0 100 56" enable-background="new 0 0 100 56" xml:space="preserve">
<rect fill="#FFFFFF" width="100" height="56"/>
<g>
	
		<radialGradient id="SVGID_1_" cx="-178.7437" cy="-328.9434" r="99.5538" gradientTransform="matrix(1 0 0 0.9698 192.4434 326.8647)" gradientUnits="userSpaceOnUse">
		<stop  offset="0" style="stop-color:#6DB3E3"/>
		<stop  offset="0.427" style="stop-color:#5799CA"/>
		<stop  offset="0.5297" style="stop-color:#4D8DBA"/>
		<stop  offset="0.8421" style="stop-color:#326A8D"/>
		<stop  offset="1" style="stop-color:#285D7C"/>
	</radialGradient>
	<path fill="url(#SVGID_1_)" d="M95.448,47.385c0,0-0.189-0.072-0.369-0.08l-7.755,0.08v-0.591c-0.881,0.351-1.819,0.53-2.719,0.53
		c0,0-0.191-0.011-0.372-0.019l-4.594,0.08v-0.057H68.527v0.057h-7.551v-2.247c0,0,0.013-1.569,0.015-1.865
		c-0.066,0-0.316,0-0.499,0c0,0.923,0,4.112,0,4.112h-7.634v-4.456c-1.257,0.493-2.694,0.621-4.057,0.621c0,0-0.465,0-0.736,0
		c0,0.759,0,3.834,0,3.834h-9.008c0,0-1.469-1.624-2.257-2.467c-0.796,0.847-2.273,2.467-2.273,2.467H19.805V30.153h14.477
		c0,0,1.607,2.688,2.533,3.668c0.93-0.976,2.541-3.668,2.541-3.668h0.996h2.359h7.383c0.429-0.031,1.556-0.01,2.764,0.432v-0.432
		h9.655c0.474-0.035,1.703,0.135,2.979,0.646v-0.646h11.87h2.278v0.863c1.337-0.526,2.569-0.873,2.758-0.863h8.052v0.863
		c1.35-0.538,2.605-0.875,2.794-0.863H100V0H0v19.05l3.386-8.281h7.356c0,0,0.845,2.438,0.881,2.52c0-0.294,0-2.52,0-2.52h8.611
		c0,0,1.289,3.265,1.904,4.587c0.609-1.319,1.89-4.587,1.89-4.587h5.762h0.577h2.278h8.341h0.677h2.278h6.696
		c0.472-0.034,1.705,0.427,2.981,0.938v-0.938h5.375h2.276v1.46c1.121-0.675,2.401-1.405,3.69-1.46c0,0,4.105-0.004,4.265,0h0.004
		h7.333c0,0,0.798,2.327,0.819,2.379c0-0.46,0-2.379,0-2.379h7.91c0,0,1.131,2.297,1.254,2.499c0-0.322,0-2.499,0-2.499H94.2V28
		H86.39c0,0-1.166-1.912-1.314-2.154c0,0.172,0,2.154,0,2.154h-9.811c0,0-0.84-1.592-1.089-2.154c-1.017,0-1.573,0-2.599,0
		C71.34,26.397,70.512,28,70.512,28h-6.497h-0.161c-0.72-0.099-1.762-0.707-2.586-1.586V28h-5.373l0,0h-6.789v-2.787
		c0,0,0.01-1.222,0.013-1.521c-0.066,0-0.319,0-0.501,0c0,0.927,0,4.308,0,4.308h-4.677h-2.955h-8.341h-0.576h-7.097
		c0,0,0,0.053,0,0c-0.038,0.082-0.121,0-0.121,0h-5.433c0,0-0.089,0.105-0.143,0c0,0.069,0,0,0,0H9.411c0,0-0.828-1.603-1.063-2.154
		c-1.023,0-1.58,0-2.599,0C5.503,26.408,4.66,28,4.66,28H0v28h100v-9.631C98.898,47.023,96.654,47.385,95.448,47.385z"/>
	<g>
		<defs>
			<path id="SVGID_2_" d="M51.836,25.846V22.62c0,0-0.125-1.654-2.051-1.654H46.79v4.88h-3.074V12.923h7.464
				c0,0,3.896,0.534,3.896,4.131c0,1.872-1.724,2.537-1.724,2.537s1.497,0.622,1.497,2.456v3.799H51.836 M46.79,18.413h3.178
				c0.923,0,1.681-0.458,1.681-1.026s-0.758-1.03-1.681-1.03H46.79V18.413L46.79,18.413"/>
		</defs>
		
			<radialGradient id="SVGID_3_" cx="14.0122" cy="-281.8867" r="129.389" gradientTransform="matrix(1 0 0 0.8958 0 240.8057)" gradientUnits="userSpaceOnUse">
			<stop  offset="0" style="stop-color:#6DB3E3"/>
			<stop  offset="0.427" style="stop-color:#5799CA"/>
			<stop  offset="0.5297" style="stop-color:#4D8DBA"/>
			<stop  offset="0.8421" style="stop-color:#326A8D"/>
			<stop  offset="1" style="stop-color:#285D7C"/>
		</radialGradient>
		<use xlink:href="#SVGID_2_"  overflow="visible" fill="url(#SVGID_3_)"/>
		<clipPath id="SVGID_4_">
			<use xlink:href="#SVGID_2_"  overflow="visible"/>
		</clipPath>
	</g>
	<g>
		<defs>
			<path id="SVGID_5_" d="M88.128,25.846l-4.878-8.368v8.368h-2.647H80.11h-2.889l-1.087-3.23h-5.618l-1.068,3.23h-2.83h-0.512
				h-1.478c0,0-4.142-1.645-4.142-6.239c0-6.024,4.698-6.65,4.859-6.685h3.794v3.395l-3.114,0.039c0,0-2.032,0-2.278,2.373
				c-0.03,0.269-0.042,0.518-0.041,0.753c0.011,3.667,3.556,3.163,3.67,3.134l3.813-9.693h4.308l4.611,10.799V12.923h4.348
				l4.817,8.098v-8.098h3.097v12.923H88.128 M71.828,19.683h2.994l-1.478-3.23L71.828,19.683L71.828,19.683"/>
		</defs>
		
			<radialGradient id="SVGID_6_" cx="14.0151" cy="-281.5903" r="123.2193" gradientTransform="matrix(1 0 0 0.8958 0 240.8057)" gradientUnits="userSpaceOnUse">
			<stop  offset="0" style="stop-color:#6DB3E3"/>
			<stop  offset="0.427" style="stop-color:#5799CA"/>
			<stop  offset="0.5297" style="stop-color:#4D8DBA"/>
			<stop  offset="0.8421" style="stop-color:#326A8D"/>
			<stop  offset="1" style="stop-color:#285D7C"/>
		</radialGradient>
		<use xlink:href="#SVGID_5_"  overflow="visible" fill="url(#SVGID_6_)"/>
		<clipPath id="SVGID_7_">
			<use xlink:href="#SVGID_5_"  overflow="visible"/>
		</clipPath>
	</g>
	<g>
		<defs>
			<path id="SVGID_8_" d="M27.7,25.846v-8.607l-3.855,8.607h-2.522l-3.877-8.569v8.569h-2.683h-0.41h-2.977l-1.062-3.391h-5.62
				l-1.087,3.391H0.244l5.108-12.923h4.327l4.675,10.929V12.923h4.857l3.384,7.694l3.365-7.694h4.862v12.923H27.7 M6.006,19.683
				h2.996l-1.497-3.23L6.006,19.683L6.006,19.683"/>
		</defs>
		
			<radialGradient id="SVGID_9_" cx="14.0161" cy="-281.9438" r="138.159" gradientTransform="matrix(1 0 0 0.8958 0 240.8057)" gradientUnits="userSpaceOnUse">
			<stop  offset="0" style="stop-color:#6DB3E3"/>
			<stop  offset="0.427" style="stop-color:#5799CA"/>
			<stop  offset="0.5297" style="stop-color:#4D8DBA"/>
			<stop  offset="0.8421" style="stop-color:#326A8D"/>
			<stop  offset="1" style="stop-color:#285D7C"/>
		</radialGradient>
		<use xlink:href="#SVGID_8_"  overflow="visible" fill="url(#SVGID_9_)"/>
		<clipPath id="SVGID_10_">
			<use xlink:href="#SVGID_8_"  overflow="visible"/>
		</clipPath>
	</g>
	<g>
		<defs>
			<polyline id="SVGID_11_" points="32.52,25.846 32.52,12.923 42.118,12.923 42.118,16.153 35.615,16.153 35.615,18.085 
				41.954,18.085 41.954,20.546 35.615,20.546 35.615,22.616 42.118,22.616 42.118,25.846 32.52,25.846 			"/>
		</defs>
		
			<radialGradient id="SVGID_12_" cx="14.0098" cy="-281.9438" r="133.7122" gradientTransform="matrix(1 0 0 0.8958 0 240.8057)" gradientUnits="userSpaceOnUse">
			<stop  offset="0" style="stop-color:#6DB3E3"/>
			<stop  offset="0.427" style="stop-color:#5799CA"/>
			<stop  offset="0.5297" style="stop-color:#4D8DBA"/>
			<stop  offset="0.8421" style="stop-color:#326A8D"/>
			<stop  offset="1" style="stop-color:#285D7C"/>
		</radialGradient>
		<use xlink:href="#SVGID_11_"  overflow="visible" fill="url(#SVGID_12_)"/>
		<clipPath id="SVGID_13_">
			<use xlink:href="#SVGID_11_"  overflow="visible"/>
		</clipPath>
	</g>
	<g>
		<defs>
			<polyline id="SVGID_14_" points="56.348,25.846 56.348,12.923 59.443,12.923 59.443,25.846 56.348,25.846 			"/>
		</defs>
		
			<radialGradient id="SVGID_15_" cx="14.0098" cy="-281.8501" r="128.1772" gradientTransform="matrix(1 0 0 0.8958 0 240.8057)" gradientUnits="userSpaceOnUse">
			<stop  offset="0" style="stop-color:#6DB3E3"/>
			<stop  offset="0.427" style="stop-color:#5799CA"/>
			<stop  offset="0.5297" style="stop-color:#4D8DBA"/>
			<stop  offset="0.8421" style="stop-color:#326A8D"/>
			<stop  offset="1" style="stop-color:#285D7C"/>
		</radialGradient>
		<use xlink:href="#SVGID_14_"  overflow="visible" fill="url(#SVGID_15_)"/>
		<clipPath id="SVGID_16_">
			<use xlink:href="#SVGID_14_"  overflow="visible"/>
		</clipPath>
	</g>
	<g>
		<g>
			<defs>
				<path id="SVGID_17_" d="M63.708,45.231v-2.669c0,0-0.123-1.662-2.053-1.662h-2.992v4.331h-3.078V32.308h7.466
					c0,0,3.894,1.024,3.894,4.646c0,1.888-1.722,2.558-1.722,2.558s1.478,0.627,1.478,2.478v3.242H63.708 M58.664,38.325h3.181
					c0.919,0,1.679-0.463,1.679-1.034c0-0.577-0.76-1.753-1.679-1.753h-3.181V38.325L58.664,38.325"/>
			</defs>
			
				<radialGradient id="SVGID_18_" cx="14.0151" cy="-264.7573" r="131.0648" gradientTransform="matrix(1 0 0 0.9026 0 224.7808)" gradientUnits="userSpaceOnUse">
				<stop  offset="0" style="stop-color:#6DB3E3"/>
				<stop  offset="0.427" style="stop-color:#5799CA"/>
				<stop  offset="0.5297" style="stop-color:#4D8DBA"/>
				<stop  offset="0.8421" style="stop-color:#326A8D"/>
				<stop  offset="1" style="stop-color:#285D7C"/>
			</radialGradient>
			<use xlink:href="#SVGID_17_"  overflow="visible" fill="url(#SVGID_18_)"/>
			<clipPath id="SVGID_19_">
				<use xlink:href="#SVGID_17_"  overflow="visible"/>
			</clipPath>
		</g>
		<g>
			<defs>
				<path id="SVGID_20_" d="M43.202,45.231h-2.688l-3.257-3.797l-3.284,3.797H32.11h-9.577V32.308h10.076l4.649,4.89l3.548-4.89
					h2.358l0,0h7.46c0,0,3.898,1.024,3.898,4.629c0,3.218-1.295,4.219-5.271,4.219h-3.012v4.075H43.202 M39.351,39.289l3.813,3.811
					v-7.992L39.351,39.289L39.351,39.289 M25.63,42.31h6.479l3.034-3.021l-3.034-3.75H25.63v2.434h6.316v2.482H25.63V42.31
					L25.63,42.31 M46.238,38.304h3.176c0.923,0,1.681-0.458,1.681-1.035c0-0.572-0.758-1.731-1.681-1.731h-3.176V38.304
					L46.238,38.304"/>
			</defs>
			
				<radialGradient id="SVGID_21_" cx="14.0146" cy="-264.6455" r="133.6489" gradientTransform="matrix(1 0 0 0.9026 0 224.7808)" gradientUnits="userSpaceOnUse">
				<stop  offset="0" style="stop-color:#6DB3E3"/>
				<stop  offset="0.427" style="stop-color:#5799CA"/>
				<stop  offset="0.5297" style="stop-color:#4D8DBA"/>
				<stop  offset="0.8421" style="stop-color:#326A8D"/>
				<stop  offset="1" style="stop-color:#285D7C"/>
			</radialGradient>
			<use xlink:href="#SVGID_20_"  overflow="visible" fill="url(#SVGID_21_)"/>
			<clipPath id="SVGID_22_">
				<use xlink:href="#SVGID_20_"  overflow="visible"/>
			</clipPath>
		</g>
		<g>
			<defs>
				<path id="SVGID_23_" d="M84.683,45.231H79.21v-3.094h4.795c0,0,1.724,0.185,1.724-0.867c0-0.984-2.603-0.909-2.603-0.909
					s-4.246,0.337-4.246-3.256c0-3.575,3.834-4.797,3.834-4.797h5.908v3.23h-4.757c0,0-1.641,0.453-1.641,1.53
					c0,0.904,2.233,0.778,2.233,0.778s4.696-0.315,4.696,2.979c0,3.53-3.025,4.407-4.097,4.407
					C84.825,45.231,84.683,45.231,84.683,45.231"/>
			</defs>
			
				<radialGradient id="SVGID_24_" cx="14.0103" cy="-264.8306" r="127.4621" gradientTransform="matrix(1 0 0 0.9026 0 224.7808)" gradientUnits="userSpaceOnUse">
				<stop  offset="0" style="stop-color:#6DB3E3"/>
				<stop  offset="0.427" style="stop-color:#5799CA"/>
				<stop  offset="0.5297" style="stop-color:#4D8DBA"/>
				<stop  offset="0.8421" style="stop-color:#326A8D"/>
				<stop  offset="1" style="stop-color:#285D7C"/>
			</radialGradient>
			<use xlink:href="#SVGID_23_"  overflow="visible" fill="url(#SVGID_24_)"/>
			<clipPath id="SVGID_25_">
				<use xlink:href="#SVGID_23_"  overflow="visible"/>
			</clipPath>
		</g>
		<g>
			<defs>
				<polyline id="SVGID_26_" points="68.219,45.231 68.219,32.308 77.813,32.308 77.813,35.538 71.314,35.538 71.314,37.972 
					77.651,37.972 77.651,40.454 71.314,40.454 71.314,42.31 77.813,42.31 77.813,45.231 68.219,45.231 				"/>
			</defs>
			
				<radialGradient id="SVGID_27_" cx="14.0142" cy="-264.9355" r="129.276" gradientTransform="matrix(1 0 0 0.9026 0 224.7808)" gradientUnits="userSpaceOnUse">
				<stop  offset="0" style="stop-color:#6DB3E3"/>
				<stop  offset="0.427" style="stop-color:#5799CA"/>
				<stop  offset="0.5297" style="stop-color:#4D8DBA"/>
				<stop  offset="0.8421" style="stop-color:#326A8D"/>
				<stop  offset="1" style="stop-color:#285D7C"/>
			</radialGradient>
			<use xlink:href="#SVGID_26_"  overflow="visible" fill="url(#SVGID_27_)"/>
			<clipPath id="SVGID_28_">
				<use xlink:href="#SVGID_26_"  overflow="visible"/>
			</clipPath>
		</g>
		<g>
			<defs>
				<path id="SVGID_29_" d="M95.529,45.231h-5.475v-3.094h4.781c0,0,1.741,0.185,1.741-0.867c0-0.984-2.603-0.909-2.603-0.909
					s-4.246,0.337-4.246-3.256c0-3.575,3.834-4.797,3.834-4.797h5.887v3.23h-4.739c0,0-1.641,0.453-1.641,1.53
					c0,0.904,2.238,0.778,2.238,0.778S100,37.53,100,40.824c0,3.53-3.025,4.407-4.1,4.407
					C95.671,45.231,95.529,45.231,95.529,45.231"/>
			</defs>
			
				<radialGradient id="SVGID_30_" cx="14.0093" cy="-264.8306" r="126.1435" gradientTransform="matrix(1 0 0 0.9026 0 224.7808)" gradientUnits="userSpaceOnUse">
				<stop  offset="0" style="stop-color:#6DB3E3"/>
				<stop  offset="0.427" style="stop-color:#5799CA"/>
				<stop  offset="0.5297" style="stop-color:#4D8DBA"/>
				<stop  offset="0.8421" style="stop-color:#326A8D"/>
				<stop  offset="1" style="stop-color:#285D7C"/>
			</radialGradient>
			<use xlink:href="#SVGID_29_"  overflow="visible" fill="url(#SVGID_30_)"/>
			<clipPath id="SVGID_31_">
				<use xlink:href="#SVGID_29_"  overflow="visible"/>
			</clipPath>
		</g>
	</g>
</g>
</svg>
