<?xml version="1.0" encoding="utf-8"?>
<!-- Generator: Adobe Illustrator 16.0.0, SVG Export Plug-In . SVG Version: 6.00 Build 0)  -->
<!DOCTYPE svg PUBLIC "-//W3C//DTD SVG 1.1//EN" "http://www.w3.org/Graphics/SVG/1.1/DTD/svg11.dtd">
<svg version="1.1" id="Capa_1" xmlns="http://www.w3.org/2000/svg" xmlns:xlink="http://www.w3.org/1999/xlink" x="0px" y="0px"
	 width="100px" height="57px" viewBox="0 0 100 57" enable-background="new 0 0 100 57" xml:space="preserve">
<rect fill="#FFFFFF" width="100" height="57"/>
<g>
	<g id="g2995_1_" transform="translate(165.274,21.91)">
		<path id="path2997_1_" fill="#336699" d="M-89.416,10.873c-0.297,0.187-0.607,0.346-0.938,0.484
			c-0.442,0.179-0.862,0.272-1.249,0.272c-0.594,0-1.053-0.085-1.363-0.263c-0.31-0.172-0.471-0.469-0.467-0.894
			c0-0.49,0.115-0.87,0.348-1.169c0.238-0.287,0.586-0.518,1.023-0.688c0.433-0.146,0.964-0.27,1.575-0.356
			c0.548-0.068,1.626-0.193,1.767-0.193c0.136,0,0.229-0.079,0.166,0.289c-0.025,0.162-0.335,1.441-0.48,2.021
			C-89.077,10.55-89.31,10.805-89.416,10.873z M-85.179,1.88c-0.909-0.507-2.331-0.762-4.276-0.762c-0.964,0-1.928,0.076-2.9,0.227
			c-0.713,0.108-0.786,0.127-1.227,0.223c-0.913,0.199-1.053,1.11-1.053,1.11l-0.289,1.204c-0.17,0.766,0.272,0.734,0.467,0.675
			c0.395-0.121,0.611-0.24,1.422-0.42c0.772-0.176,1.592-0.31,2.246-0.303c0.959,0,1.686,0.104,2.169,0.306
			c0.488,0.212,0.726,0.571,0.726,1.087c0,0.121,0.004,0.238-0.038,0.34c-0.042,0.093-0.119,0.185-0.348,0.214
			c-1.367,0.083-2.348,0.208-3.528,0.38c-1.167,0.164-2.187,0.444-3.04,0.834c-0.909,0.403-1.588,0.942-2.06,1.628
			c-0.454,0.688-0.688,1.52-0.688,2.499c0,0.925,0.335,1.681,0.977,2.267c0.654,0.582,1.499,0.866,2.526,0.866
			c0.641-0.002,1.142-0.051,1.503-0.14c0.356-0.089,0.743-0.219,1.155-0.395c0.306-0.13,0.637-0.314,0.985-0.546
			c0.349-0.231,0.59-0.399,0.9-0.603l0.013,0.02l-0.089,0.388l-0.004,0.009l0.004,0.006c-0.102,0.462,0.179,0.851,0.637,0.896
			l0.004,0.006h0.042v0.002c0.306,0,1.354,0,1.843-0.002h0.344c0.021,0,0.025-0.006,0.034-0.01c0.467-0.058,0.917-0.439,1.023-0.898
			l1.75-7.547c0.038-0.178,0.072-0.382,0.089-0.62c0.021-0.237,0.051-0.433,0.042-0.573C-83.812,3.179-84.27,2.387-85.179,1.88"/>
	</g>
	<g id="g2999_1_">
		<g>
			<defs>
				<rect id="SVGID_1_" x="9.324" y="19.287" width="86.957" height="22.293"/>
			</defs>
			<clipPath id="SVGID_2_">
				<use xlink:href="#SVGID_1_"  overflow="visible"/>
			</clipPath>
			<g id="g3001" clip-path="url(#SVGID_2_)">
				<g id="g3007_1_" transform="translate(101.082,45.728)">
					<path id="path3009_1_" fill="#1C3664" d="M-51.065-22.535c-0.514,0-1.185,0.416-1.503,0.917c0,0-3.431,5.881-3.771,6.471
						c-0.183,0.316-0.365,0.113-0.399-0.004c-0.025-0.145-1.062-6.428-1.062-6.428c-0.119-0.505-0.645-0.938-1.308-0.938
						l-2.14,0.004c-0.514,0-0.836,0.414-0.722,0.913c0,0,1.635,9.267,1.953,11.447c0.162,1.206-0.013,1.42-0.013,1.42l-2.123,3.696
						c-0.31,0.501-0.14,0.913,0.374,0.913l2.479-0.004c0.514,0,1.193-0.408,1.499-0.909l9.537-16.13c0,0,0.913-1.38,0.072-1.367
						C-48.764-22.526-51.065-22.535-51.065-22.535"/>
				</g>
				<g id="g3011_1_" transform="translate(39.137,49.474)">
					<path id="path3013_1_" fill="#1C3664" d="M-14.056-27.788c-0.297-0.58-0.743-1.053-1.312-1.41
						c-0.59-0.361-1.278-0.613-2.081-0.764c-0.807-0.146-1.745-0.217-2.823-0.225l-4.998,0.002
						c-0.522,0.006-1.032,0.414-1.151,0.915l-3.367,14.648c-0.119,0.501,0.208,0.913,0.722,0.913h2.395
						c0.518,0,1.032-0.401,1.146-0.913l0.828-3.556c0.11-0.495,0.62-0.909,1.138-0.909h0.688c2.925-0.002,5.197-0.601,6.828-1.8
						c1.63-1.197,2.445-2.783,2.441-4.745C-13.598-26.491-13.746-27.213-14.056-27.788 M-19.228-23.001
						c-0.722,0.527-1.72,0.79-3.019,0.79h-0.586c-0.518,0-0.845-0.408-0.73-0.911l0.717-3.108c0.11-0.499,0.628-0.915,1.146-0.909
						l0.781-0.006c0.917,0,1.613,0.155,2.081,0.467c0.463,0.306,0.696,0.783,0.688,1.427
						C-18.133-24.283-18.502-23.529-19.228-23.001"/>
				</g>
			</g>
		</g>
	</g>
	<g id="g3015" transform="translate(147.108,49.341)">
		<path id="path3017" fill="#336699" d="M-78.562-27.604c-0.297-0.577-0.748-1.046-1.321-1.41c-0.582-0.361-1.273-0.615-2.081-0.764
			c-0.794-0.138-1.736-0.221-2.815-0.221h-5.01c-0.514,0.013-1.019,0.416-1.138,0.915l-3.371,14.655
			c-0.119,0.497,0.212,0.913,0.722,0.911l2.403-0.006c0.509,0.006,1.027-0.408,1.146-0.904l0.815-3.556
			c0.115-0.499,0.633-0.917,1.15-0.908h0.684c2.93,0,5.202-0.603,6.832-1.803c1.622-1.204,2.441-2.785,2.441-4.751
			C-78.112-26.305-78.256-27.028-78.562-27.604 M-83.729-22.808c-0.718,0.52-1.724,0.783-3.019,0.783h-0.599
			c-0.514,0.007-0.845-0.41-0.722-0.911l0.718-3.11c0.106-0.493,0.628-0.913,1.138-0.907l0.786-0.006
			c0.917,0.006,1.605,0.159,2.081,0.465c0.467,0.312,0.692,0.79,0.696,1.427C-82.647-24.091-83.007-23.343-83.729-22.808"/>
	</g>
	<g id="g3019" transform="translate(57.28,21.938)">
		<path id="path3021" fill="#1C3664" d="M-24.896,10.834c-0.297,0.187-0.611,0.344-0.938,0.484
			c-0.441,0.178-0.866,0.271-1.252,0.271c-0.59,0-1.049-0.085-1.359-0.263c-0.31-0.174-0.471-0.471-0.467-0.896
			c0-0.488,0.114-0.87,0.348-1.167c0.233-0.287,0.586-0.518,1.019-0.692c0.433-0.146,0.968-0.266,1.579-0.353
			c0.543-0.068,1.626-0.193,1.762-0.193c0.14,0,0.229-0.079,0.17,0.289c-0.025,0.161-0.34,1.441-0.484,2.021
			C-24.561,10.512-24.79,10.766-24.896,10.834z M-20.659,1.841c-0.909-0.507-2.331-0.762-4.276-0.762
			c-0.963,0-1.932,0.074-2.9,0.227c-0.713,0.106-0.785,0.124-1.231,0.221c-0.909,0.199-1.049,1.108-1.049,1.108l-0.293,1.206
			c-0.166,0.769,0.271,0.736,0.467,0.677c0.399-0.121,0.616-0.24,1.427-0.425c0.773-0.172,1.592-0.306,2.246-0.304
			c0.956,0,1.686,0.108,2.17,0.31c0.484,0.212,0.722,0.571,0.722,1.087c0.004,0.121,0.008,0.238-0.034,0.335
			s-0.119,0.187-0.348,0.219c-1.367,0.083-2.348,0.206-3.533,0.38c-1.163,0.164-2.187,0.444-3.04,0.834
			c-0.909,0.401-1.588,0.942-2.055,1.628c-0.459,0.688-0.688,1.516-0.688,2.499c0,0.926,0.331,1.682,0.977,2.268
			c0.649,0.58,1.499,0.866,2.522,0.866c0.641-0.002,1.146-0.051,1.503-0.138c0.357-0.093,0.748-0.221,1.155-0.397
			c0.306-0.129,0.637-0.314,0.985-0.546c0.348-0.233,0.594-0.399,0.904-0.603l0.009,0.019l-0.085,0.384
			c-0.004,0.004-0.009,0.006-0.009,0.006l0.004,0.011c-0.098,0.467,0.178,0.853,0.641,0.898l0.004,0.006h0.038l0.004,0.004
			c0.306,0,1.354-0.002,1.843-0.004h0.339c0.025,0,0.025-0.006,0.034-0.013c0.471-0.06,0.917-0.442,1.027-0.896l1.745-7.549
			c0.042-0.176,0.072-0.38,0.093-0.618c0.021-0.238,0.047-0.433,0.039-0.576C-19.296,3.136-19.755,2.347-20.659,1.841"/>
	</g>
	<g id="g3023" transform="translate(196.3,54.997)">
		<path id="path3025_1_" fill="#336699" d="M-107.951-35.536h-2.14c-0.004,0-0.004,0-0.004,0l0,0c-0.493,0-0.989,0.377-1.129,0.855
			c-0.004,0.017-0.013,0.036-0.017,0.057c0,0-0.051,0.231-0.14,0.637l-2.942,13.336c-0.068,0.302-0.115,0.499-0.127,0.55
			l0.004,0.006c-0.102,0.467,0.178,0.851,0.637,0.896l0.009,0.006h2.22c0.488,0,0.985-0.371,1.125-0.843
			c0.008-0.023,0.021-0.042,0.025-0.065l3.21-14.523l-0.004-0.004C-107.119-35.122-107.437-35.536-107.951-35.536"/>
	</g>
</g>
</svg>
