<?xml version="1.0" encoding="utf-8"?>
<!-- Generator: Adobe Illustrator 16.0.0, SVG Export Plug-In . SVG Version: 6.00 Build 0)  -->
<!DOCTYPE svg PUBLIC "-//W3C//DTD SVG 1.1//EN" "http://www.w3.org/Graphics/SVG/1.1/DTD/svg11.dtd">
<svg version="1.1" id="Capa_1" xmlns="http://www.w3.org/2000/svg" xmlns:xlink="http://www.w3.org/1999/xlink" x="0px" y="0px"
	 width="100px" height="57px" viewBox="0 0 100 57" enable-background="new 0 0 100 57" xml:space="preserve">
<rect fill="#FFFFFF" width="100" height="56"/>
<g>
	<polygon fill-rule="evenodd" clip-rule="evenodd" fill="#005297" points="37.801,39.829 41.99,14.399 48.68,14.399 44.493,39.829 
		37.801,39.829 	"/>
	<path fill-rule="evenodd" clip-rule="evenodd" fill="#005297" d="M68.752,15.023c-1.32-0.513-3.414-1.083-6.001-1.083
		c-6.606,0-11.262,3.464-11.29,8.414c-0.055,3.65,3.331,5.678,5.864,6.897c2.59,1.244,3.469,2.055,3.469,3.164
		c-0.025,1.704-2.091,2.488-4.019,2.488c-2.671,0-4.104-0.405-6.278-1.352l-0.881-0.406l-0.936,5.708
		c1.571,0.703,4.46,1.325,7.464,1.352c7.021,0,11.589-3.408,11.646-8.683c0.025-2.895-1.764-5.112-5.62-6.925
		c-2.339-1.164-3.772-1.948-3.772-3.139c0.028-1.083,1.214-2.188,3.855-2.188c2.176-0.056,3.772,0.458,4.987,0.972l0.605,0.271
		L68.752,15.023L68.752,15.023z"/>
	<path fill-rule="evenodd" clip-rule="evenodd" fill="#005297" d="M77.647,30.821c0.552-1.46,2.668-7.115,2.668-7.115
		c-0.023,0.054,0.554-1.487,0.883-2.434l0.469,2.19c0,0,1.267,6.086,1.541,7.358C82.165,30.821,78.97,30.821,77.647,30.821
		L77.647,30.821z M85.908,14.399h-5.176c-1.596,0-2.809,0.461-3.497,2.111l-9.942,23.318h7.021c0,0,1.157-3.139,1.405-3.814
		c0.771,0,7.6,0,8.592,0c0.193,0.89,0.798,3.814,0.798,3.814h6.195L85.908,14.399L85.908,14.399z"/>
	<path fill-rule="evenodd" clip-rule="evenodd" fill="#005297" d="M32.212,14.399L25.658,31.74l-0.715-3.516
		c-1.212-4.059-5.013-8.466-9.252-10.658l6.003,22.233h7.076l10.519-25.4H32.212L32.212,14.399z"/>
	<path fill-rule="evenodd" clip-rule="evenodd" fill="#E2A900" d="M19.574,14.399H8.806l-0.11,0.518
		c8.398,2.106,13.96,7.193,16.247,13.307l-2.34-11.688C22.217,14.917,21.032,14.456,19.574,14.399L19.574,14.399z"/>
</g>
</svg>
